<svg width="34" height="24" viewBox="0 0 34 24" fill="none" xmlns="http://www.w3.org/2000/svg">
<path d="M0.5 4C0.5 2.067 2.067 0.5 4 0.5H30C31.933 0.5 33.5 2.067 33.5 4V20C33.5 21.933 31.933 23.5 30 23.5H4C2.067 23.5 0.5 21.933 0.5 20V4Z" fill="white"/>
<path d="M0.5 4C0.5 2.067 2.067 0.5 4 0.5H30C31.933 0.5 33.5 2.067 33.5 4V20C33.5 21.933 31.933 23.5 30 23.5H4C2.067 23.5 0.5 21.933 0.5 20V4Z" stroke="#E6E6E6"/>
<path fill-rule="evenodd" clip-rule="evenodd" d="M17.1791 16.8294C15.9951 17.8275 14.4591 18.43 12.7807 18.43C9.03582 18.43 6 15.4303 6 11.73C6 8.02972 9.03582 5.03003 12.7807 5.03003C14.4591 5.03003 15.9951 5.63258 17.1791 6.6307C18.3632 5.63258 19.8992 5.03003 21.5776 5.03003C25.3224 5.03003 28.3583 8.02972 28.3583 11.73C28.3583 15.4303 25.3224 18.43 21.5776 18.43C19.8992 18.43 18.3632 17.8275 17.1791 16.8294Z" fill="#ED0006"/>
<path fill-rule="evenodd" clip-rule="evenodd" d="M17.1791 16.8294C18.637 15.6005 19.5614 13.7719 19.5614 11.73C19.5614 9.68815 18.637 7.8596 17.1791 6.6307C18.3632 5.63258 19.8992 5.03003 21.5776 5.03003C25.3224 5.03003 28.3583 8.02972 28.3583 11.73C28.3583 15.4303 25.3224 18.43 21.5776 18.43C19.8992 18.43 18.3632 17.8275 17.1791 16.8294Z" fill="#F9A000"/>
<path fill-rule="evenodd" clip-rule="evenodd" d="M17.1791 16.8293C18.637 15.6004 19.5614 13.7718 19.5614 11.7299C19.5614 9.68806 18.637 7.85952 17.1791 6.63062C15.7213 7.85952 14.7969 9.68806 14.7969 11.7299C14.7969 13.7718 15.7213 15.6004 17.1791 16.8293Z" fill="#FF5E00"/>
</svg>
